<svg width="10" height="10" viewBox="0 0 10 10" fill="none" xmlns="http://www.w3.org/2000/svg">
<g clip-path="url(#clip0)">
<path d="M10 4.22277C9.99933 2.70286 9.17822 1.30174 7.85252 0.558292C6.52682 -0.185057 4.90315 -0.15487 3.60598 0.637228C4.8462 0.243621 6.19515 0.39319 7.31901 1.04891C7.41436 1.10479 7.44641 1.22739 7.39053 1.32274C7.33464 1.41809 7.21204 1.45013 7.11669 1.39425C6.47387 1.01872 5.74263 0.820989 4.99811 0.821478C4.22682 0.819622 3.47038 1.0325 2.81329 1.43626C4.44966 0.918097 6.23852 1.35459 7.45236 2.56824C8.6663 3.78178 9.10309 5.57055 8.58522 7.20711C9.38572 5.89538 9.40535 4.2511 8.63651 2.92062C8.59704 2.85868 8.59479 2.78004 8.63065 2.71585C8.6664 2.65167 8.73459 2.6123 8.80806 2.61327C8.88152 2.61425 8.94854 2.65548 8.98264 2.72054C9.62878 3.83884 9.77522 5.17724 9.38601 6.40876C9.78909 5.75099 10.0017 4.99426 10 4.22277ZM8.53002 2.38809C8.44454 2.45823 8.31842 2.44573 8.24837 2.36025C8.07487 2.14864 7.88134 1.95443 7.67051 1.78005C7.58523 1.70961 7.57321 1.58349 7.64365 1.4982C7.71399 1.41291 7.84021 1.4009 7.9254 1.47133C8.15615 1.66193 8.36795 1.87442 8.55786 2.10576C8.59176 2.14679 8.60788 2.19974 8.60261 2.25269C8.59743 2.30564 8.57125 2.35438 8.53002 2.38809Z" fill="#6C63FF"/>
<path d="M7.83453 7.93136C8.78782 6.28298 8.51428 4.19966 7.16768 2.85325C5.82107 1.50684 3.73766 1.23349 2.08937 2.18698C1.93101 2.2795 1.77881 2.38207 1.63363 2.49413C0.343787 3.49021 -0.253804 5.14231 0.100432 6.73295C0.454767 8.3237 1.69694 9.56607 3.28758 9.9206C4.87823 10.2751 6.53042 9.67783 7.5266 8.38818C7.63934 8.2429 7.74221 8.09031 7.83453 7.93136ZM2.85265 8.95177C2.82911 8.99935 2.78759 9.03569 2.73728 9.05259C2.68696 9.06959 2.63196 9.06588 2.58439 9.04223C2.23845 8.87019 1.923 8.64286 1.65044 8.36922C1.4485 8.16807 1.27187 7.94308 1.12465 7.69914C1.08626 7.63779 1.08391 7.56052 1.11859 7.49701C1.15337 7.43361 1.21961 7.39375 1.2919 7.39287C1.36429 7.39209 1.43141 7.43039 1.46755 7.49301C1.59827 7.7094 1.75507 7.90889 1.93433 8.08708C2.17622 8.32995 2.45612 8.53178 2.76307 8.68448C2.86203 8.73352 2.90257 8.85359 2.85343 8.95255L2.85265 8.95177ZM2.99734 6.82381H3.39749C3.39749 7.26577 3.75583 7.62411 4.19779 7.62411C4.63976 7.62411 4.9981 7.26577 4.9981 6.82381C4.9981 6.38175 4.63976 6.0235 4.19779 6.0235C3.57637 6.01989 3.06045 5.54266 3.00847 4.92347C2.9565 4.30429 3.38567 3.74773 3.99772 3.64056V3.22243H4.39787V3.64056C4.97475 3.73855 5.39718 4.23786 5.39825 4.82305H4.9981C4.9981 4.38098 4.63976 4.02274 4.19779 4.02274C3.75583 4.02274 3.39749 4.38098 3.39749 4.82305C3.39749 5.26501 3.75583 5.62335 4.19779 5.62335C4.81913 5.62697 5.33504 6.1041 5.38712 6.72328C5.43909 7.34256 5.00992 7.89912 4.39787 8.00619V8.42442H3.99772V8.00619C3.42084 7.90821 2.99841 7.4089 2.99734 6.82381ZM6.84763 8.26195C6.84294 8.26694 6.83806 8.27182 6.83298 8.27632C6.80455 8.30777 6.77514 8.33894 6.74378 8.3702C5.89326 9.21789 4.67688 9.58697 3.4987 9.35495C3.39036 9.33346 3.31982 9.22814 3.34132 9.1198C3.36281 9.01136 3.46812 8.94093 3.57656 8.96242C4.62393 9.16982 5.70569 8.84147 6.46106 8.08689C6.49261 8.05563 6.52104 8.02466 6.54869 7.99379C6.55084 7.99144 6.55348 7.98919 6.55592 7.98685L6.55866 7.98421C6.56188 7.98118 6.56471 7.97806 6.56784 7.97522C7.63993 6.80368 7.68545 5.02146 6.67472 3.79668C6.60799 3.71569 6.53658 3.63714 6.46047 3.56114C5.42922 2.53008 3.83125 2.32678 2.57472 3.06691C1.31828 3.80703 0.721177 5.30311 1.12299 6.70492C1.15327 6.81121 1.09163 6.92199 0.98534 6.95228C0.879049 6.98246 0.768363 6.92092 0.738078 6.81463C0.436498 5.77194 0.623483 4.64886 1.24667 3.76024C2.01562 2.65562 3.33643 2.072 4.67092 2.24706C6.00542 2.42223 7.13085 3.32677 7.58883 4.59239C8.04682 5.85801 7.76077 7.27339 6.84744 8.26195H6.84763Z" fill="#6C63FF"/>
</g>
<defs>
<clipPath id="clip0">
<rect width="10" height="10" fill="white"/>
</clipPath>
</defs>
</svg>
