<svg width="10" height="10" viewBox="0 0 10 10" fill="none" xmlns="http://www.w3.org/2000/svg">
<path d="M9.64285 2.50001H7.85714V0.35715C7.85714 0.159898 7.69725 0 7.49999 0H0.35715C0.159898 0 0 0.159898 0 0.35715V8.57142C0 9.36041 0.639592 10 1.42858 10H8.57142C9.36041 10 10 9.36041 10 8.57142V2.85713C10 2.6599 9.8401 2.50001 9.64285 2.50001ZM2.85713 1.78571H4.99999C5.19724 1.78571 5.35714 1.9456 5.35714 2.14286C5.35714 2.34011 5.19724 2.50001 4.99999 2.50001H2.85713C2.65988 2.50001 2.49998 2.34011 2.49998 2.14286C2.49998 1.9456 2.6599 1.78571 2.85713 1.78571ZM6.07142 8.57142H1.78571C1.58845 8.57142 1.42856 8.41152 1.42856 8.21427C1.42856 8.01702 1.58845 7.85712 1.78571 7.85712H6.07142C6.26867 7.85712 6.42857 8.01702 6.42857 8.21427C6.42857 8.41152 6.26867 8.57142 6.07142 8.57142ZM6.07142 7.14285H1.78571C1.58845 7.14285 1.42856 6.98295 1.42856 6.7857C1.42856 6.58844 1.58845 6.42855 1.78571 6.42855H6.07142C6.26867 6.42855 6.42857 6.58844 6.42857 6.7857C6.42857 6.98295 6.26867 7.14285 6.07142 7.14285ZM6.07142 5.71429H1.78571C1.58845 5.71429 1.42856 5.55439 1.42856 5.35714C1.42856 5.15989 1.58845 4.99999 1.78571 4.99999H6.07142C6.26867 4.99999 6.42857 5.15989 6.42857 5.35714C6.42857 5.55439 6.26867 5.71429 6.07142 5.71429ZM6.07142 4.28571H1.78571C1.58845 4.28571 1.42856 4.12581 1.42856 3.92856C1.42856 3.73131 1.58845 3.57141 1.78571 3.57141H6.07142C6.26867 3.57141 6.42857 3.73131 6.42857 3.92856C6.42857 4.12581 6.26867 4.28571 6.07142 4.28571ZM9.2857 8.57142C9.2857 8.96591 8.96591 9.2857 8.57142 9.2857C8.17694 9.2857 7.85714 8.96591 7.85714 8.57142V3.21428H9.28572V8.57142H9.2857Z" fill="#6C63FF"/>
</svg>
