<svg width="25" height="25" viewBox="0 0 25 25" fill="none" xmlns="http://www.w3.org/2000/svg">
<path d="M18.2533 8.56207C18.2533 6.97077 17.6212 5.44465 16.496 4.31943C15.3707 3.19421 13.8446 2.56207 12.2533 2.56207C10.662 2.56207 9.1359 3.19421 8.01069 4.31943C6.88547 5.44465 6.25333 6.97077 6.25333 8.56207C6.25333 15.5621 3.25333 17.5621 3.25333 17.5621H21.2533C21.2533 17.5621 18.2533 15.5621 18.2533 8.56207Z" stroke="black" stroke-width="2" stroke-linecap="round" stroke-linejoin="round"/>
<path d="M13.9833 21.5621C13.8075 21.8652 13.5552 22.1167 13.2515 22.2916C12.9479 22.4665 12.6037 22.5585 12.2533 22.5585C11.9029 22.5585 11.5587 22.4665 11.2551 22.2916C10.9515 22.1167 10.6991 21.8652 10.5233 21.5621" stroke="black" stroke-width="2" stroke-linecap="round" stroke-linejoin="round"/>
</svg>