<svg width="24" height="24" viewBox="0 0 24 24" fill="none" xmlns="http://www.w3.org/2000/svg">
<rect width="24" height="24" rx="3" fill="#E5E5E5"/>
<path d="M10.04 15.2305V14.543C10.04 13.7552 10.1833 13.0999 10.4697 12.5771C10.7562 12.0544 11.2575 11.5137 11.9736 10.9551C12.8258 10.2819 13.3737 9.75911 13.6172 9.38672C13.8678 9.01432 13.9932 8.57031 13.9932 8.05469C13.9932 7.45312 13.7926 6.99121 13.3916 6.66895C12.9906 6.34668 12.4141 6.18555 11.6621 6.18555C10.9818 6.18555 10.3516 6.28223 9.77148 6.47559C9.19141 6.66895 8.62565 6.90169 8.07422 7.17383L7.17188 5.2832C8.62565 4.47396 10.1833 4.06934 11.8447 4.06934C13.2484 4.06934 14.362 4.41309 15.1855 5.10059C16.0091 5.78809 16.4209 6.73698 16.4209 7.94727C16.4209 8.48438 16.3421 8.96419 16.1846 9.38672C16.027 9.80208 15.7871 10.1995 15.4648 10.5791C15.1497 10.9587 14.6019 11.4528 13.8213 12.0615C13.1553 12.5843 12.7077 13.0176 12.4785 13.3613C12.2565 13.7051 12.1455 14.167 12.1455 14.7471V15.2305H10.04ZM9.59961 18.6572C9.59961 17.5758 10.126 17.0352 11.1787 17.0352C11.6943 17.0352 12.0882 17.1784 12.3604 17.4648C12.6325 17.7441 12.7686 18.1416 12.7686 18.6572C12.7686 19.1657 12.6289 19.5703 12.3496 19.8711C12.0775 20.1647 11.6872 20.3115 11.1787 20.3115C10.6702 20.3115 10.2799 20.1683 10.0078 19.8818C9.73568 19.5882 9.59961 19.18 9.59961 18.6572Z" fill="black"/>
</svg>
