<svg width="10" height="10" viewBox="0 0 10 10" fill="none" xmlns="http://www.w3.org/2000/svg">
<g clip-path="url(#clip0)">
<path d="M8.55732 0.256917C8.4053 0.186879 8.22618 0.214133 8.10184 0.326175L7.44578 0.907069C7.42794 0.922953 7.40101 0.922859 7.38326 0.90688L6.49061 0.108497C6.32917 -0.0361655 6.08475 -0.0361655 5.92331 0.108497L5.03146 0.906147C5.01352 0.922173 4.98641 0.922173 4.96847 0.906147L4.07653 0.108497C3.91508 -0.0361419 3.67067 -0.0361419 3.50922 0.108497L2.61646 0.90688C2.59859 0.922859 2.57159 0.92293 2.55363 0.907045L1.89698 0.326175C1.72277 0.171254 1.45595 0.186879 1.30102 0.361088C1.23155 0.43921 1.19354 0.540332 1.19435 0.644857V9.35517C1.19279 9.58866 1.3808 9.7792 1.61429 9.78076C1.71889 9.78147 1.82001 9.74337 1.89816 9.67385L2.55422 9.09296C2.57207 9.07707 2.59899 9.07717 2.61674 9.09314L3.50939 9.89153C3.67084 10.0362 3.91525 10.0362 4.07669 9.89153L4.96863 9.09388C4.98657 9.07785 5.01369 9.07785 5.03163 9.09388L5.92357 9.8915C6.08504 10.0361 6.32943 10.0361 6.49087 9.8915L7.38369 9.09312C7.40156 9.07714 7.42855 9.07707 7.44652 9.09296L8.10317 9.67383C8.27745 9.82868 8.54424 9.81293 8.69909 9.63865C8.76845 9.5606 8.80641 9.4596 8.80565 9.35517V0.644857C8.80787 0.477527 8.7102 0.324946 8.55732 0.256917ZM2.75932 3.39266H5.1133C5.21773 3.39266 5.3024 3.47733 5.3024 3.58176C5.3024 3.68619 5.21773 3.77086 5.1133 3.77086H2.75932C2.65489 3.77086 2.57022 3.68619 2.57022 3.58176C2.57022 3.47733 2.65489 3.39266 2.75932 3.39266ZM7.24068 6.60737H2.75932C2.65489 6.60737 2.57022 6.5227 2.57022 6.41827C2.57022 6.31384 2.65489 6.22917 2.75932 6.22917H7.24068C7.34511 6.22917 7.42978 6.31384 7.42978 6.41827C7.42978 6.5227 7.34511 6.60737 7.24068 6.60737ZM7.24068 5.18911H2.75932C2.65489 5.18911 2.57022 5.10444 2.57022 5.00001C2.57022 4.89558 2.65489 4.81091 2.75932 4.81091H7.24068C7.34511 4.81091 7.42978 4.89558 7.42978 5.00001C7.42978 5.10444 7.34511 5.18911 7.24068 5.18911Z" fill="#6C63FF"/>
</g>
<defs>
<clipPath id="clip0">
<rect width="10" height="10" fill="white"/>
</clipPath>
</defs>
</svg>
