<svg width="10" height="10" viewBox="0 0 10 10" fill="none" xmlns="http://www.w3.org/2000/svg">
<g clip-path="url(#clip0)">
<path d="M9.42319 3.88889H8.49375C8.34436 3.88889 8.22128 3.80611 8.16407 3.66722C8.10685 3.52833 8.13592 3.38204 8.24134 3.27574L8.89849 2.61444C8.99508 2.51722 9.04825 2.38778 9.04825 2.25037C9.04825 2.11278 8.99508 1.98352 8.89849 1.88611L8.06086 1.04296C7.86768 0.848518 7.53083 0.848148 7.33728 1.04296L6.68031 1.70426C6.59292 1.79222 6.49689 1.81056 6.43158 1.81056C6.33959 1.81056 6.24815 1.77426 6.18063 1.71074C6.13078 1.6637 6.07117 1.58037 6.07117 1.45037V0.514815C6.07117 0.230926 5.84175 0 5.55972 0H4.37492C4.09289 0 3.86347 0.230926 3.86347 0.514815V1.45037C3.86347 1.67593 3.68005 1.81056 3.5027 1.81056C3.43757 1.81056 3.34153 1.79204 3.25415 1.70426L2.59717 1.04296C2.40363 0.848148 2.06677 0.848518 1.8736 1.04296L1.03596 1.88611C0.939376 1.98333 0.886207 2.11278 0.886207 2.25037C0.886207 2.38778 0.939376 2.51704 1.03596 2.61444L1.69312 3.27574C1.79854 3.38204 1.82742 3.52833 1.77039 3.66722C1.71336 3.80611 1.59028 3.88889 1.44089 3.88889H0.51145C0.229417 3.88889 0 4.11981 0 4.4037V5.59593C0 5.88 0.229417 6.11111 0.51145 6.11111H1.44089C1.59028 6.11111 1.71336 6.19389 1.77057 6.33278C1.82779 6.47167 1.79872 6.61796 1.6933 6.72426L1.03615 7.38556C0.939559 7.48278 0.886391 7.61222 0.886391 7.74963C0.886391 7.88722 0.939559 8.01648 1.03615 8.11389L1.87378 8.95704C2.06714 9.15167 2.40382 9.15204 2.59736 8.95704L3.25433 8.29574C3.34172 8.20778 3.43775 8.18944 3.50306 8.18944C3.68023 8.18944 3.86366 8.32426 3.86366 8.54963V9.485C3.86347 9.76889 4.09289 10 4.37492 10H5.55954C5.84157 10 6.07099 9.76889 6.07099 9.485V8.54963C6.07099 8.32407 6.25441 8.18944 6.43158 8.18944C6.4967 8.18944 6.59292 8.20796 6.68031 8.29574L7.33728 8.95704C7.53083 9.15185 7.86768 9.15148 8.06086 8.95704L8.89849 8.11389C8.99508 8.01667 9.04825 7.88722 9.04825 7.74963C9.04825 7.61222 8.99508 7.48296 8.89849 7.38556L8.24134 6.72426C8.13592 6.61796 8.10703 6.47167 8.16407 6.33278C8.2211 6.19389 8.34436 6.11111 8.49375 6.11111H9.42319C9.70522 6.11111 9.93464 5.88 9.93464 5.59611V4.4037C9.93464 4.11981 9.70522 3.88889 9.42319 3.88889ZM6.25514 5C6.25514 5.71463 5.67728 6.2963 4.96732 6.2963C4.25736 6.2963 3.6795 5.71463 3.6795 5C3.6795 4.28537 4.25736 3.7037 4.96732 3.7037C5.67728 3.7037 6.25514 4.28537 6.25514 5Z" fill="#6C63FF"/>
</g>
<defs>
<clipPath id="clip0">
<rect width="9.93464" height="10" fill="white"/>
</clipPath>
</defs>
</svg>
