<svg width="200" height="200" viewBox="0 0 200 200" fill="none" xmlns="http://www.w3.org/2000/svg">
<circle cx="100" cy="100" r="100" fill="black"/>
<path d="M158.467 130.092C170.979 136.103 176.463 151.458 167.235 161.829C161.609 168.151 155.092 173.679 147.854 178.223C133.473 187.252 116.832 192.028 99.8514 192C82.8712 191.972 66.2454 187.141 51.8943 178.065C44.6711 173.497 38.1725 167.947 32.5677 161.606C23.3743 151.206 28.9085 135.869 41.4403 129.898L43.9632 128.697C55.1016 123.39 68.3357 128.985 78.7632 135.58V135.58C85.0987 139.586 92.4383 141.719 99.9344 141.731C107.43 141.744 114.777 139.635 121.126 135.65V135.65C131.575 129.089 144.828 123.538 155.948 128.881L158.467 130.092Z" fill="white"/>
<circle cx="100" cy="72" r="50" fill="white"/>
</svg>
