<svg width="20" height="20" viewBox="0 0 20 20" fill="none" xmlns="http://www.w3.org/2000/svg">
<circle cx="10" cy="10" r="10" fill="white"/>
<g clip-path="url(#clip0)">
<path d="M6.65945 11.2518L6.24175 12.8112L4.71505 12.8435C4.2588 11.9972 4 11.029 4 10.0001C4 9.00512 4.24197 8.06687 4.67087 7.24072H4.6712L6.03039 7.48991L6.6258 8.84094C6.50118 9.20425 6.43326 9.59425 6.43326 10.0001C6.4333 10.4405 6.51309 10.8625 6.65945 11.2518Z" fill="#FBBB00"/>
<path d="M15.8951 8.87915C15.964 9.2421 15.9999 9.61694 15.9999 10C15.9999 10.4296 15.9548 10.8486 15.8687 11.2528C15.5766 12.6282 14.8135 13.8291 13.7562 14.679L13.7559 14.6787L12.0439 14.5914L11.8016 13.0788C12.5031 12.6674 13.0514 12.0235 13.3402 11.2528H10.1318V8.87915H13.387H15.8951Z" fill="#518EF8"/>
<path d="M13.7558 14.6787L13.7562 14.6791C12.7279 15.5055 11.4218 16.0001 9.99991 16.0001C7.71497 16.0001 5.72838 14.7229 4.71497 12.8435L6.65936 11.2518C7.16606 12.6041 8.47057 13.5668 9.99991 13.5668C10.6573 13.5668 11.2731 13.3891 11.8016 13.0789L13.7558 14.6787Z" fill="#28B446"/>
<path d="M13.8297 5.38131L11.8859 6.97262C11.339 6.63077 10.6925 6.43328 9.9999 6.43328C8.43594 6.43328 7.10703 7.44009 6.62572 8.84087L4.6711 7.24066H4.67078C5.66935 5.31538 7.681 4 9.9999 4C11.4557 4 12.7906 4.51858 13.8297 5.38131Z" fill="#F14336"/>
</g>
<defs>
<clipPath id="clip0">
<rect x="4" y="4" width="12" height="12" fill="white"/>
</clipPath>
</defs>
</svg>
